<svg xmlns="http://www.w3.org/2000/svg" id="_レイヤー_2" data-name="レイヤー_2" viewBox="0 0 165.67 25.76"><defs><style>.cls-1{fill:#3e38f5}</style></defs><g id="_レイヤー_1-2" data-name="レイヤー_1"><path d="M16.07.4c.32-.27.68-.4 1.07-.4s.74.13 1.03.39.68.74 1.16 1.44L34.1 24.15q.27.345.27.6c0 .35-.36.53-1.09.53H26.8c-.58 0-1.02-.08-1.32-.23q-.45-.225-.87-.9l-7.62-12.06-7.57 12.06c-.27.45-.56.74-.87.9-.3.15-.76.23-1.37.23H1.05c-.7 0-1.05-.18-1.05-.53 0-.19.08-.39.23-.6L14.96 1.83c.43-.68.8-1.15 1.12-1.42ZM37.64.9c.2-.15.51-.23.93-.23h12.04c4.16 0 7.33.54 9.49 1.62s3.24 2.84 3.24 5.27c0 1.17-.36 2.17-1.07 3.01-.71.83-1.7 1.48-2.94 1.95 1.58.38 2.81 1.02 3.69 1.93s1.32 2.03 1.32 3.34c0 2.6-1.17 4.5-3.51 5.69s-5.73 1.79-10.17 1.79H38.58c-.43 0-.74-.08-.93-.23q-.3-.225-.3-.72V1.62q0-.495.3-.72Zm15.81 8.8c.7-.3 1.05-.81 1.05-1.51s-.34-1.2-1.03-1.49c-.68-.29-1.82-.44-3.4-.44h-3.33c-.3 0-.5.04-.59.12s-.14.23-.14.44V9.6c0 .21.05.36.14.44s.29.12.59.12h3.33c1.55 0 2.67-.15 3.37-.46Zm.86 9.49c.73-.33 1.09-.86 1.09-1.58s-.37-1.25-1.12-1.56c-.75-.32-1.95-.47-3.63-.47h-3.92c-.3 0-.5.04-.59.11s-.14.22-.14.46v2.99c0 .21.05.36.14.44s.29.12.59.12h3.92c1.7 0 2.92-.16 3.65-.49ZM69.47 6.4c1.47-1.94 3.52-3.47 6.13-4.57Q79.515.18 84.45.18c4.935 0 6.28.54 8.89 1.63S98 4.42 99.47 6.36c1.47 1.95 2.21 4.15 2.21 6.61s-.74 4.69-2.21 6.63c-1.47 1.93-3.53 3.44-6.16 4.53s-5.62 1.63-8.96 1.63-6.18-.54-8.78-1.62-4.64-2.58-6.11-4.52c-1.48-1.93-2.21-4.13-2.21-6.59s.74-4.7 2.21-6.64Zm19.18 12.42c1.28-.55 2.28-1.33 3.01-2.34s1.09-2.17 1.09-3.48-.36-2.51-1.09-3.51c-.73-1.01-1.73-1.79-2.99-2.34s-2.67-.83-4.22-.83-2.99.28-4.24.83q-1.875.825-2.94 2.34c-.71 1.01-1.07 2.18-1.07 3.51s.36 2.47 1.07 3.48q1.065 1.515 2.94 2.34c1.25.55 2.64.83 4.19.83s2.96-.27 4.24-.83ZM106.55.9c.2-.15.51-.23.93-.23h6.16c.46 0 .78.08.98.23q.3.225.3.72v12.51c0 1.78.51 3.15 1.53 4.09 1.02.95 2.52 1.42 4.49 1.42s3.48-.47 4.51-1.42 1.55-2.31 1.55-4.09V1.62q0-.495.3-.72c.2-.15.51-.23.93-.23h6.16c.46 0 .78.08.98.23q.3.225.3.72v13c0 2.44-.62 4.49-1.87 6.15s-3 2.91-5.27 3.74-4.89 1.25-7.87 1.25-5.41-.4-7.57-1.21q-3.24-1.215-5.04-3.69c-1.2-1.65-1.8-3.71-1.8-6.17V1.62q0-.495.3-.72M148 6.87q-.165-.12-.57-.12h-6.89c-.82 0-1.23-.32-1.23-.95V1.62c0-.63.41-.95 1.23-.95h23.9c.43 0 .74.08.93.23q.3.225.3.72V5.8q0 .495-.3.72c-.2.15-.51.23-.93.23h-6.89q-.405 0-.57.12c-.11.08-.16.23-.16.44v17.01q0 .495-.3.72c-.2.15-.51.23-.93.23h-6.2c-.43 0-.74-.08-.93-.23q-.3-.225-.3-.72V7.31c0-.21-.05-.36-.16-.44" class="cls-1"/></g></svg>