<svg xmlns="http://www.w3.org/2000/svg" id="_レイヤー_2" data-name="レイヤー_2" viewBox="0 0 166.31 25.76"><defs><style>.cls-1{fill:#8035f6}</style></defs><g id="_レイヤー_1-2" data-name="レイヤー_1"><path d="M17.44 21.58c0 .28-.14.57-.43.88-.96 1.03-2.04 1.84-3.23 2.43s-2.44.88-3.76.88c-1.9 0-3.62-.54-5.15-1.63s-2.72-2.6-3.59-4.53q-1.29-2.895-1.29-6.48c0-3.585.44-4.67 1.32-6.64s2.1-3.51 3.65-4.62C6.53.73 8.28.18 10.24.18c1.32 0 2.56.29 3.72.88s2.23 1.41 3.19 2.46c.21.23.32.47.32.7 0 .19-.06.4-.19.63l-1.73 3.23c-.16.3-.34.46-.53.46-.12 0-.3-.09-.53-.28-1.39-1.29-2.81-1.93-4.27-1.93-.96 0-1.82.28-2.57.84-.76.56-1.35 1.35-1.77 2.35-.43 1.01-.64 2.17-.64 3.48s.21 2.44.64 3.44c.43 1.01 1.02 1.79 1.77 2.35.76.56 1.61.84 2.57.84.82 0 1.58-.18 2.29-.53s1.39-.84 2.03-1.48c.21-.21.4-.32.56-.32s.32.14.48.42l1.71 3.23c.11.21.16.41.16.6ZM20.12.9c.12-.15.3-.23.55-.23h3.6c.27 0 .46.08.57.23.12.15.17.39.17.72v7.52c0 .21.03.36.08.44s.17.12.35.12h5.55q.24 0 .33-.12c.06-.08.09-.23.09-.44V1.62c0-.63.25-.95.75-.95h3.6c.5 0 .75.32.75.95v22.71c0 .63-.25.95-.75.95h-3.6c-.5 0-.75-.32-.75-.95v-7.98c0-.21-.03-.36-.09-.44q-.09-.12-.33-.12h-5.55c-.18 0-.29.04-.35.12-.05.08-.08.23-.08.44v7.98c0 .33-.06.57-.17.72-.12.15-.31.23-.57.23h-3.6c-.25 0-.43-.08-.55-.23s-.17-.39-.17-.72V1.62c0-.33.06-.57.17-.72M47.66.4c.19-.27.4-.4.63-.4s.43.13.6.39.4.74.68 1.44l8.64 22.32c.11.23.16.43.16.6 0 .35-.21.53-.64.53h-3.79c-.34 0-.6-.08-.77-.23q-.27-.225-.51-.9l-4.45-12.06-4.43 12.06c-.16.45-.33.74-.51.9-.18.15-.44.23-.8.23h-3.6c-.41 0-.61-.18-.61-.53 0-.19.04-.39.13-.6L47 1.83c.25-.68.47-1.15.65-1.42ZM60.27.9c.12-.15.3-.23.55-.23h6.4c2.84 0 4.96.67 6.35 2.02s2.08 3.44 2.08 6.27-1.02 5.05-3.07 6.36l4.03 8.82c.11.23.16.43.16.6 0 .35-.22.53-.67.53h-3.81q-.585 0-.87-.21c-.19-.14-.38-.43-.57-.88l-4.13-9.67c-.09-.23-.13-.41-.13-.53 0-.26.19-.43.56-.53.98-.16 1.77-.56 2.37-1.18s.91-1.48.91-2.58q0-1.755-.87-2.58c-.58-.55-1.44-.83-2.6-.83H65.6c-.18 0-.29.04-.35.11s-.08.22-.08.46v17.47c0 .33-.06.57-.17.72-.12.15-.31.23-.57.23h-3.6c-.25 0-.43-.08-.55-.23s-.17-.39-.17-.72V1.62c0-.33.06-.57.17-.72Z" class="cls-1"/><path d="M86.13.4c.19-.27.4-.4.63-.4s.43.13.6.39.4.74.68 1.44l8.64 22.32c.11.23.16.43.16.6 0 .35-.21.53-.64.53h-3.79c-.34 0-.6-.08-.77-.23q-.27-.225-.51-.9l-4.45-12.06-4.43 12.06c-.16.45-.33.74-.51.9-.18.15-.44.23-.8.23h-3.6c-.41 0-.61-.18-.61-.53 0-.19.04-.39.13-.6l8.62-22.32c.25-.68.47-1.15.65-1.42ZM115.07 21.58c0 .28-.14.57-.43.88-.96 1.03-2.04 1.84-3.23 2.43s-2.44.88-3.76.88c-1.9 0-3.62-.54-5.15-1.63s-2.72-2.6-3.59-4.53q-1.29-2.895-1.29-6.48c0-3.585.44-4.67 1.32-6.64s2.1-3.51 3.65-4.62C104.15.76 105.9.2 107.86.2c1.32 0 2.56.29 3.72.88s2.23 1.41 3.19 2.46c.21.23.32.47.32.7 0 .19-.06.4-.19.63l-1.73 3.23c-.16.3-.34.46-.53.46-.12 0-.3-.09-.53-.28-1.39-1.29-2.81-1.93-4.27-1.93-.96 0-1.82.28-2.57.84-.76.56-1.35 1.35-1.77 2.35-.43 1.01-.64 2.17-.64 3.48s.21 2.44.64 3.44c.43 1.01 1.02 1.79 1.77 2.35.76.56 1.61.84 2.57.84.82 0 1.58-.18 2.29-.53s1.39-.84 2.03-1.48c.21-.21.4-.32.56-.32s.32.14.48.42l1.71 3.23c.11.21.16.41.16.6ZM121.19 6.87q-.09-.12-.33-.12h-4.03c-.48 0-.72-.32-.72-.95V1.62c0-.63.24-.95.72-.95h13.97c.25 0 .43.08.55.23s.17.39.17.72V5.8c0 .33-.06.57-.17.72-.12.15-.3.23-.55.23h-4.03q-.24 0-.33.12c-.06.08-.09.23-.09.44v17.01c0 .33-.06.57-.17.72-.12.15-.3.23-.55.23H122c-.25 0-.43-.08-.55-.23s-.17-.39-.17-.72V7.31c0-.21-.03-.36-.09-.44M133.96.9c.12-.15.3-.23.55-.23h11.38c.5 0 .75.32.75.95v3.9c0 .35-.06.6-.17.74q-.18.21-.57.21h-6.61c-.18 0-.29.04-.35.12s-.08.23-.08.44v2.46c0 .21.03.35.08.42s.17.11.35.11h5.73c.25 0 .43.08.55.25.11.16.17.41.17.74v3.83c0 .33-.06.57-.17.72-.12.15-.3.23-.55.23h-5.73c-.18 0-.29.04-.35.12-.05.08-.08.23-.08.44v2.57c0 .21.03.36.08.44s.17.12.35.12h6.64q.405 0 .57.21c.12.14.17.39.17.74v3.9c0 .63-.25.95-.75.95h-11.41c-.25 0-.43-.08-.55-.23s-.17-.39-.17-.72V1.62c0-.33.06-.57.17-.72M149.82.9c.12-.15.3-.23.55-.23h6.4c2.84 0 4.96.67 6.35 2.02s2.08 3.44 2.08 6.27-1.02 5.05-3.07 6.36l4.03 8.82c.11.23.16.43.16.6 0 .35-.22.53-.67.53h-3.81q-.585 0-.87-.21c-.19-.14-.38-.43-.57-.88l-4.13-9.67c-.09-.23-.13-.41-.13-.53 0-.26.19-.43.56-.53.98-.16 1.77-.56 2.37-1.18s.91-1.48.91-2.58q0-1.755-.87-2.58c-.58-.55-1.44-.83-2.6-.83h-1.36c-.18 0-.29.04-.35.11s-.08.22-.08.46v17.47c0 .33-.06.57-.17.72-.12.15-.31.23-.57.23h-3.6c-.25 0-.43-.08-.55-.23s-.17-.39-.17-.72V1.62c0-.33.06-.57.17-.72Z" class="cls-1"/></g></svg>