<svg xmlns="http://www.w3.org/2000/svg" id="_レイヤー_2" data-name="レイヤー_2" viewBox="0 0 165.85 25.76"><defs><style>.cls-1{fill:#3e38f5}</style></defs><g id="_レイヤー_1-2" data-name="レイヤー_1"><path d="M22.01 21.58c0 .28-.18.57-.54.88a14.3 14.3 0 0 1-4.07 2.43c-1.5.59-3.09.88-4.75.88-2.4 0-4.57-.54-6.5-1.63q-2.895-1.635-4.53-4.53C.53 17.68-.01 15.52-.01 13.13s.56-4.67 1.67-6.64a11.97 11.97 0 0 1 4.61-4.62C8.24.73 10.45.18 12.92.18c1.66 0 3.22.29 4.69.88q2.205.885 4.02 2.46c.27.23.4.47.4.7q0 .285-.24.63L19.6 8.08c-.2.3-.43.46-.67.46-.16 0-.38-.09-.67-.28-1.75-1.29-3.55-1.93-5.38-1.93-1.21 0-2.29.28-3.25.84-.95.56-1.7 1.35-2.24 2.35q-.81 1.515-.81 3.48c0 1.965.27 2.44.81 3.44.54 1.01 1.28 1.79 2.24 2.35.95.56 2.04.84 3.25.84 1.03 0 2-.18 2.89-.53.9-.35 1.75-.84 2.56-1.48.27-.21.5-.32.71-.32s.4.14.61.42l2.15 3.23c.13.21.2.41.2.6ZM25.63 6.4c1.09-1.94 2.6-3.47 4.53-4.57S34.27.18 36.69.18s4.63.54 6.56 1.63 3.44 2.61 4.53 4.55c1.09 1.95 1.63 4.15 1.63 6.61s-.54 4.69-1.63 6.63c-1.09 1.93-2.6 3.44-4.54 4.53s-4.15 1.63-6.61 1.63-4.56-.54-6.48-1.62a11.6 11.6 0 0 1-4.51-4.52c-1.09-1.93-1.63-4.13-1.63-6.59s.54-4.7 1.63-6.64Zm14.15 12.42q1.41-.825 2.22-2.34t.81-3.48c0-1.965-.27-2.51-.81-3.51-.54-1.01-1.27-1.79-2.2-2.34s-1.97-.83-3.11-.83-2.21.28-3.13.83-1.64 1.33-2.17 2.34-.79 2.18-.79 3.51.26 2.47.79 3.48 1.25 1.79 2.17 2.34 1.95.83 3.1.83 2.19-.27 3.13-.83ZM53.78.18c.22 0 .48.09.76.28s.64.49 1.09.91l11.98 11.21V1.62c0-.33.07-.57.22-.72s.38-.23.69-.23h4.58c.61 0 .91.32.91.95v22.71q0 1.44-.84 1.44c-.25 0-.5-.09-.77-.26s-.63-.49-1.08-.93L59.34 13.37v10.97c0 .33-.07.57-.22.72s-.39.23-.72.23h-4.54c-.31 0-.54-.08-.69-.23s-.22-.39-.22-.72V1.62q0-1.44.84-1.44ZM83.28 6.87q-.12-.12-.42-.12h-5.08c-.61 0-.91-.32-.91-.95V1.62c0-.63.3-.95.91-.95h17.63c.31 0 .54.08.69.23s.22.39.22.72V5.8c0 .33-.07.57-.22.72s-.38.23-.69.23h-5.08q-.3 0-.42.12c-.12.12-.12.23-.12.44v17.01c0 .33-.07.57-.22.72s-.38.23-.69.23H84.3c-.31 0-.54-.08-.69-.23s-.22-.39-.22-.72V7.31c0-.21-.04-.36-.12-.44ZM108.55.4c.24-.27.5-.4.79-.4s.54.13.76.39c.21.26.5.74.86 1.44l10.9 22.32c.13.23.2.43.2.6 0 .35-.27.53-.81.53h-4.78c-.43 0-.75-.08-.98-.23-.22-.15-.44-.45-.64-.9l-5.62-12.06-5.59 12.06c-.2.45-.42.74-.64.9-.22.15-.56.23-1.01.23h-4.54c-.52 0-.77-.18-.77-.53 0-.19.06-.39.17-.6l10.88-22.32c.31-.68.59-1.15.82-1.42ZM145.08 21.58c0 .28-.18.57-.54.88a14.3 14.3 0 0 1-4.07 2.43c-1.5.59-3.09.88-4.75.88-2.4 0-4.57-.54-6.5-1.63q-2.895-1.635-4.53-4.53c-1.09-1.93-1.63-4.09-1.63-6.48s.56-4.67 1.67-6.64a11.97 11.97 0 0 1 4.61-4.62C131.3.76 133.52.2 135.99.2c1.66 0 3.22.29 4.69.88q2.205.885 4.02 2.46c.27.23.4.47.4.7q0 .285-.24.63l-2.19 3.23c-.2.3-.43.46-.67.46-.16 0-.38-.09-.67-.28-1.75-1.29-3.55-1.93-5.38-1.93-1.21 0-2.29.28-3.25.84-.95.56-1.7 1.35-2.24 2.35q-.81 1.515-.81 3.48c0 1.965.27 2.44.81 3.44.54 1.01 1.28 1.79 2.24 2.35.95.56 2.04.84 3.25.84 1.03 0 2-.18 2.89-.53.9-.35 1.75-.84 2.56-1.48.27-.21.5-.32.71-.32s.4.14.61.42l2.15 3.23c.13.21.2.41.2.6ZM152.81 6.87q-.12-.12-.42-.12h-5.08c-.61 0-.91-.32-.91-.95V1.62c0-.63.3-.95.91-.95h17.63c.31 0 .54.08.69.23s.22.39.22.72V5.8c0 .33-.07.57-.22.72s-.38.23-.69.23h-5.08q-.3 0-.42.12c-.12.12-.12.23-.12.44v17.01c0 .33-.07.57-.22.72s-.38.23-.69.23h-4.58c-.31 0-.54-.08-.69-.23s-.22-.39-.22-.72V7.31c0-.21-.04-.36-.12-.44Z" class="cls-1"/></g></svg>