<svg xmlns="http://www.w3.org/2000/svg" id="_レイヤー_2" data-name="レイヤー_2" viewBox="0 0 165 25.87"><defs><style>.cls-1{fill:#8035f6}</style></defs><g id="_レイヤー_1-2" data-name="レイヤー_1"><path d="M.17.9C.29.75.47.67.72.67h6.85c2.18 0 4.04.49 5.58 1.48 1.54.98 2.72 2.38 3.52 4.18s1.21 3.93 1.21 6.36-.42 4.77-1.27 6.66q-1.275 2.835-3.69 4.38c-1.62 1.03-3.56 1.55-5.82 1.55H.72c-.25 0-.43-.08-.55-.23S0 24.66 0 24.33V1.62c0-.33.06-.57.17-.72m11.06 16.67q1.41-1.68 1.41-4.71c0-1.27-.21-2.36-.62-3.29S11 7.93 10.19 7.43s-1.81-.76-2.99-.76H5.51c-.18 0-.29.04-.35.12s-.08.23-.08.44v11.46c0 .21.03.36.08.44s.17.12.35.12h1.58c1.82 0 3.2-.56 4.14-1.69ZM21.06 6.4c.87-1.94 2.07-3.47 3.6-4.57S27.93.18 29.85.18s3.69.54 5.22 1.63 2.74 2.61 3.6 4.55c.87 1.95 1.3 4.15 1.3 6.61s-.43 4.69-1.3 6.63c-.87 1.93-2.07 3.44-3.61 4.53s-3.3 1.63-5.26 1.63-3.63-.54-5.15-1.62c-1.53-1.08-2.72-2.58-3.59-4.52-.87-1.93-1.3-4.13-1.3-6.59s.43-4.7 1.3-6.64Zm11.25 12.42q1.125-.825 1.77-2.34c.645-1.515.64-2.17.64-3.48s-.21-2.51-.64-3.51c-.43-1.01-1.01-1.79-1.75-2.34s-1.57-.83-2.48-.83-1.76.28-2.49.83-1.31 1.33-1.73 2.34Q25 11.005 25 13c0 1.995.21 2.47.63 3.48s.99 1.79 1.73 2.34c.73.55 1.55.83 2.46.83s1.74-.28 2.49-.83M40.91 1.19c0-.35.22-.53.67-.53h3.8c.34 0 .58.06.74.19.15.13.3.43.44.9l3.08 10.26 3.45-9.81c.23-.61.42-1.02.56-1.23s.31-.32.51-.32.36.11.5.32c.13.21.32.62.55 1.23l3.43 9.74 3.05-10.19c.14-.44.29-.74.44-.88s.41-.21.76-.21h3.8c.43 0 .64.19.64.56 0 .19-.04.39-.11.6l-7.09 22.21c-.23.73-.42 1.21-.58 1.46s-.33.37-.52.37c-.18 0-.33-.11-.47-.33-.13-.22-.33-.69-.6-1.39l-3.83-10.72-3.83 10.72c-.25.68-.45 1.14-.59 1.37s-.3.35-.48.35c-.2 0-.37-.12-.52-.37s-.34-.73-.58-1.46l-7.09-22.2c-.09-.28-.13-.49-.13-.63ZM69.88.18c.18 0 .38.09.6.28s.51.49.87.91l9.53 11.21V1.62c0-.33.06-.57.17-.72.12-.15.3-.23.55-.23h3.64c.48 0 .72.32.72.95v22.71c0 .96-.22 1.44-.67 1.44-.2 0-.4-.09-.62-.26s-.5-.49-.86-.93l-9.53-11.21v10.97c0 .33-.06.57-.17.72s-.31.23-.58.23h-3.61c-.25 0-.43-.08-.55-.23s-.17-.39-.17-.72V1.62c0-.96.22-1.44.67-1.44ZM89.89.9c.12-.15.3-.23.55-.23h3.61c.27 0 .46.08.58.23s.17.39.17.72v17.01c0 .21.03.36.08.44s.17.12.35.12h6.64c.25 0 .43.08.55.23s.17.39.17.72v4.18c0 .33-.06.57-.17.72s-.3.23-.55.23H90.44c-.25 0-.43-.08-.55-.23s-.17-.39-.17-.72V1.62c0-.33.06-.57.17-.72M105.44 6.4c.87-1.94 2.07-3.47 3.6-4.57s3.27-1.65 5.19-1.65 3.69.54 5.22 1.63 2.74 2.61 3.6 4.55c.87 1.95 1.3 4.15 1.3 6.61s-.43 4.69-1.3 6.63c-.87 1.93-2.07 3.44-3.61 4.53s-3.3 1.63-5.26 1.63-3.63-.54-5.15-1.62c-1.53-1.08-2.72-2.58-3.59-4.52-.87-1.93-1.3-4.13-1.3-6.59s.43-4.7 1.3-6.64Zm11.26 12.42q1.125-.825 1.77-2.34c.645-1.515.64-2.17.64-3.48s-.21-2.51-.64-3.51c-.43-1.01-1.01-1.79-1.75-2.34s-1.57-.83-2.48-.83-1.76.28-2.49.83-1.31 1.33-1.73 2.34q-.63 1.515-.63 3.51c0 1.995.21 2.47.63 3.48s.99 1.79 1.73 2.34c.73.55 1.55.83 2.46.83s1.74-.28 2.49-.83M134.63.4c.19-.27.4-.4.63-.4s.43.13.6.39.4.74.68 1.44l8.67 22.32c.11.23.16.43.16.6 0 .35-.21.53-.64.53h-3.8c-.34 0-.6-.08-.78-.23q-.27-.225-.51-.9l-4.47-12.06-4.44 12.06c-.16.45-.33.74-.51.9-.18.15-.45.23-.8.23h-3.61c-.41 0-.62-.18-.62-.53 0-.19.04-.39.13-.6l8.65-22.32c.25-.68.47-1.15.66-1.42ZM147.29.9c.12-.15.3-.23.55-.23h6.85c2.18 0 4.04.49 5.58 1.48 1.54.98 2.72 2.38 3.52 4.18s1.21 3.93 1.21 6.36-.42 4.77-1.27 6.66q-1.275 2.835-3.69 4.38c-1.62 1.03-3.56 1.55-5.82 1.55h-6.37c-.25 0-.43-.08-.55-.23s-.17-.39-.17-.72V1.62c0-.33.06-.57.17-.72Zm11.06 16.67q1.41-1.68 1.41-4.71c0-1.27-.21-2.36-.62-3.29s-1.02-1.64-1.83-2.14-1.81-.76-2.99-.76h-1.69c-.18 0-.29.04-.35.12s-.08.23-.08.44v11.46c0 .21.03.36.08.44s.17.12.35.12h1.58c1.82 0 3.2-.56 4.14-1.69Z" class="cls-1"/></g></svg>