<svg xmlns="http://www.w3.org/2000/svg" id="_レイヤー_2" data-name="レイヤー_2" viewBox="0 0 165.47 25.59"><defs><style>.cls-1{fill:#8035f6}</style></defs><g id="_レイヤー_1-2" data-name="レイヤー_1"><path d="M.34.72C.57.57.93.49 1.42.49h12.62c5.61 0 9.78.67 12.52 2.02s4.1 3.44 4.1 6.27-2.02 5.05-6.05 6.36l7.94 8.82c.21.23.32.43.32.6 0 .35-.44.53-1.32.53h-7.52q-1.155 0-1.71-.21c-.555-.21-.75-.43-1.13-.88l-8.15-9.67c-.18-.23-.26-.41-.26-.53 0-.26.37-.43 1.1-.53 1.93-.16 3.49-.56 4.68-1.18s1.79-1.48 1.79-2.58q0-1.755-1.71-2.58c-1.14-.55-2.85-.83-5.13-.83h-2.68c-.35 0-.58.04-.68.11s-.16.22-.16.46v17.47c0 .33-.11.57-.34.72s-.6.23-1.13.23h-7.1c-.49 0-.85-.08-1.08-.23S0 24.47 0 24.14V1.44C0 1.11.11.87.34.72M36.79.72c.23-.15.59-.23 1.08-.23h7.1c.53 0 .9.08 1.13.23s.34.39.34.72v12.51c0 1.78.59 3.15 1.76 4.09 1.17.95 2.9 1.42 5.18 1.42s4.01-.47 5.21-1.42c1.19-.95 1.79-2.31 1.79-4.09V1.44c0-.33.11-.57.34-.72s.59-.23 1.08-.23h7.1c.53 0 .9.08 1.13.23s.34.39.34.72v13q0 3.66-2.16 6.15c-1.44 1.66-3.46 2.91-6.08 3.74-2.61.83-5.64 1.25-9.07 1.25s-6.24-.4-8.73-1.21-4.43-2.04-5.81-3.69c-1.39-1.65-2.08-3.71-2.08-6.17V1.44c0-.33.11-.57.34-.72ZM77.82.72c.23-.15.59-.23 1.08-.23H86c.53 0 .9.08 1.13.23s.34.39.34.72v17.01c0 .21.05.36.16.44s.33.12.68.12h13.04c.49 0 .85.08 1.08.23s.34.39.34.72v4.18c0 .33-.11.57-.34.72s-.59.23-1.08.23H78.89c-.49 0-.85-.08-1.08-.23s-.34-.39-.34-.72V1.44c0-.33.11-.57.34-.72ZM108.01.72c.23-.15.59-.23 1.08-.23h22.46c.98 0 1.47.32 1.47.95v3.9c0 .35-.11.6-.34.74s-.61.21-1.13.21h-13.04c-.35 0-.58.04-.68.12s-.16.23-.16.44v2.46c0 .21.05.35.16.42s.33.11.68.11h11.31c.49 0 .85.08 1.08.25.23.16.34.41.34.74v3.83c0 .33-.11.57-.34.72s-.59.23-1.08.23h-11.31c-.35 0-.58.04-.68.12s-.16.23-.16.44v2.57c0 .21.05.36.16.44s.33.12.68.12h13.1c.53 0 .9.07 1.13.21s.34.39.34.74v3.9c0 .63-.49.95-1.47.95H109.1c-.49 0-.85-.08-1.08-.23s-.34-.39-.34-.72V1.44c0-.33.11-.57.34-.72ZM140.54 17.26c.28 0 .63.11 1.05.32q1.95.945 4.26 1.53c1.54.39 3.09.58 4.63.58s2.71-.16 3.5-.47 1.18-.74 1.18-1.28c0-.37-.19-.69-.58-.95s-1.01-.49-1.87-.69q-1.29-.3-3.81-.72c-2.6-.42-4.73-.94-6.42-1.56-1.68-.62-2.97-1.42-3.87-2.41-.89-.98-1.34-2.19-1.34-3.62 0-1.66.61-3.1 1.81-4.31 1.21-1.21 2.88-2.12 5.02-2.74s4.59-.93 7.36-.93c4.98 0 9.4 1.04 13.25 3.13.42.21.63.46.63.74 0 .24-.12.47-.37.7l-3.16 3.23c-.32.3-.65.46-1 .46s-.68-.09-1-.28c-2.84-1.38-5.59-2.07-8.26-2.07-1.26 0-2.24.16-2.95.47-.7.32-1.05.73-1.05 1.25 0 .4.19.73.58.98.39.26.96.47 1.74.65.77.18 1.93.39 3.47.65 2.77.45 5.03.99 6.79 1.63 1.75.64 3.08 1.45 3.97 2.42s1.34 2.15 1.34 3.53c0 1.66-.61 3.1-1.84 4.32s-2.96 2.15-5.21 2.79c-2.24.64-4.86.97-7.84.97-2.7 0-5.21-.28-7.52-.83s-4.38-1.31-6.21-2.27a3.2 3.2 0 0 1-.63-.4.6.6 0 0 1-.21-.44c0-.23.16-.5.47-.81l3-3.06c.32-.35.67-.53 1.05-.53Z" class="cls-1"/></g></svg>