<svg xmlns="http://www.w3.org/2000/svg" id="_レイヤー_2" data-name="レイヤー_2" viewBox="0 0 163.64 25.69"><defs><style>.cls-1{fill:#3e38f5}</style></defs><g id="_レイヤー_1-2" data-name="レイヤー_1"><path d="M0 1.02C0 .67.36.49 1.07.49h6.1c.54 0 .94.06 1.18.19s.48.43.71.9L14 11.84l5.54-9.81q.555-.915.9-1.23c.23-.21.5-.32.82-.32s.58.11.79.32.51.62.88 1.23l5.5 9.74 4.9-10.19c.23-.44.47-.74.71-.88s.65-.21 1.22-.21h6.1c.69 0 1.03.19 1.03.56 0 .19-.06.39-.17.6L30.83 23.86c-.37.73-.68 1.21-.92 1.46s-.52.37-.84.37q-.435 0-.75-.33c-.21-.22-.54-.69-.97-1.39L21.2 13.25l-6.15 10.72c-.4.68-.72 1.14-.95 1.37s-.49.35-.77.35c-.32 0-.59-.12-.84-.37-.24-.25-.55-.73-.92-1.46L.21 1.65Q0 1.23 0 1.02M46 6.22c1.39-1.94 3.32-3.47 5.78-4.57Q55.47 0 60.12 0c4.65 0 5.92.54 8.38 1.63s4.39 2.61 5.78 4.55c1.39 1.95 2.08 4.15 2.08 6.61s-.69 4.69-2.08 6.63c-1.39 1.93-3.32 3.44-5.8 4.53s-5.29 1.63-8.44 1.63-5.82-.54-8.27-1.62-4.37-2.58-5.76-4.52c-1.39-1.93-2.08-4.13-2.08-6.59s.69-4.7 2.08-6.64Zm18.07 12.43c1.2-.55 2.15-1.33 2.84-2.34s1.03-2.17 1.03-3.48-.34-2.51-1.03-3.51c-.69-1.01-1.63-1.79-2.81-2.34-1.19-.55-2.51-.83-3.98-.83s-2.82.28-4 .83c-1.17.55-2.1 1.33-2.77 2.34s-1.01 2.18-1.01 3.51.34 2.47 1.01 3.48 1.6 1.79 2.77 2.34 2.49.83 3.95.83 2.79-.27 4-.83M81.16.72c.19-.15.48-.23.88-.23h10.31c4.58 0 7.99.67 10.23 2.02 2.23 1.35 3.35 3.44 3.35 6.27s-1.65 5.05-4.94 6.36l6.49 8.82c.17.23.26.43.26.6 0 .35-.36.53-1.07.53h-6.15c-.63 0-1.1-.07-1.4-.21s-.61-.43-.92-.88l-6.66-9.67c-.14-.23-.21-.41-.21-.53 0-.26.3-.43.9-.53 1.58-.16 2.85-.56 3.82-1.18s1.46-1.48 1.46-2.58c0-1.17-.47-2.03-1.4-2.58s-2.33-.83-4.19-.83h-2.19c-.29 0-.47.04-.56.11s-.13.22-.13.46v17.47c0 .33-.09.57-.28.72s-.49.23-.92.23h-5.8c-.4 0-.69-.08-.88-.23s-.28-.39-.28-.72V1.44c0-.33.09-.57.28-.72M111.15.72c.19-.15.48-.23.88-.23h5.8c.43 0 .74.08.92.23.19.15.28.39.28.72v22.71c0 .33-.09.57-.28.72s-.49.23-.92.23h-5.8c-.4 0-.69-.08-.88-.23s-.28-.39-.28-.72V1.44c0-.33.09-.57.28-.72m8.57 12c0-.28.14-.59.43-.91l8.59-10.33c.31-.4.61-.66.88-.79s.69-.19 1.27-.19h6.7c.31 0 .55.05.71.14s.24.21.24.35c0 .16-.09.35-.26.56l-9.63 10.93 10.01 11.56q.3.345.3.6c0 .14-.09.25-.26.33s-.42.12-.73.12h-6.88c-.6 0-1.04-.06-1.31-.18s-.57-.37-.88-.77l-8.81-10.61q-.39-.495-.39-.81ZM143.27 17.26c.23 0 .52.11.86.32q1.59.945 3.48 1.53c1.26.39 2.52.58 3.78.58s2.21-.16 2.86-.47c.64-.32.97-.74.97-1.28 0-.37-.16-.69-.47-.95-.32-.26-.82-.49-1.53-.69q-1.05-.3-3.12-.72c-2.12-.42-3.87-.94-5.24-1.56-1.38-.62-2.43-1.42-3.16-2.41-.73-.98-1.1-2.19-1.1-3.62 0-1.66.49-3.1 1.48-4.31s2.36-2.12 4.1-2.74c1.75-.62 3.75-.93 6.02-.93 4.07 0 7.68 1.04 10.83 3.13.34.21.52.46.52.74 0 .23-.1.47-.3.7l-2.58 3.23c-.26.3-.53.46-.82.46s-.56-.09-.82-.28q-3.48-2.07-6.75-2.07c-1.03 0-1.83.16-2.41.47-.57.32-.86.73-.86 1.25 0 .4.16.73.47.98.31.26.79.47 1.42.65s1.58.39 2.84.65c2.26.45 4.11.99 5.54 1.63q2.145.96 3.24 2.43c.73.97 1.1 2.15 1.1 3.53 0 1.66-.5 3.11-1.5 4.32-1 1.22-2.42 2.15-4.25 2.79s-3.97.97-6.4.97c-2.21 0-4.25-.28-6.15-.83-1.89-.55-3.58-1.31-5.07-2.27-.23-.14-.4-.27-.52-.4a.66.66 0 0 1-.17-.44q0-.345.39-.81l2.45-3.06c.26-.35.54-.53.86-.53Z" class="cls-1"/></g></svg>