<svg xmlns="http://www.w3.org/2000/svg" id="_レイヤー_2" data-name="レイヤー_2" viewBox="0 0 622.89 107.42"><defs><clipPath id="clippath"><path d="M.41 0h63.83v66.83H.41z" class="cls-2"/></clipPath><clipPath id="clippath-1"><path d="M64.24 0h63.83v66.83H64.24z" class="cls-2"/></clipPath><clipPath id="clippath-2"><path d="M0 40h63.83v66.83H0z" class="cls-2"/></clipPath><clipPath id="clippath-3"><path d="M63.83 40h63.83v66.83H63.83z" class="cls-2"/></clipPath><style>.cls-1{fill:#fff}.cls-2,.cls-3{fill:none}.cls-3{stroke:#fff;stroke-miterlimit:10;stroke-width:4px}</style></defs><g id="_レイヤー_2-2" data-name="レイヤー_2"><g id="_レイヤー_3" data-name="レイヤー_3"><path d="M184.26 106.23V54.11h23.83q7.29 0 11.58 3.42c2.85 2.28 4.28 6.13 4.28 11.54s-1.43 9.28-4.28 11.62c-2.85 2.33-6.71 3.5-11.58 3.5h-15.26v22.04h-8.56Zm8.57-30.09h14.07c2.53 0 4.49-.55 5.88-1.64s2.08-2.9 2.08-5.44-.7-4.27-2.08-5.36c-1.39-1.09-3.35-1.64-5.88-1.64h-14.07v14.07ZM239.66 106.23l19.88-52.12h7.59l19.88 52.12h-9.75l-4.02-11.47h-20.03l-4.02 11.47zm16.38-19.44h14.44l-7.15-20.33-7.3 20.33ZM327.59 107.42c-4.72 0-8.9-1.12-12.55-3.35s-6.5-5.4-8.56-9.49-3.09-8.9-3.09-14.41 1.03-10.39 3.09-14.48c2.06-4.1 4.91-7.27 8.56-9.53s7.83-3.39 12.55-3.39c3.87 0 7.43.68 10.69 2.05 3.25 1.37 5.94 3.12 8.08 5.25l-5.44 6.7c-1.49-1.64-3.41-2.98-5.77-4.02q-3.54-1.56-7.56-1.56c-3.13 0-5.82.79-8.08 2.38q-3.39 2.385-5.25 6.66c-1.24 2.85-1.86 6.17-1.86 9.94s.62 7.01 1.86 9.87c1.24 2.85 2.99 5.08 5.25 6.66 2.26 1.59 4.95 2.38 8.08 2.38 2.33 0 4.28-.23 5.85-.71 1.56-.47 2.94-1.05 4.13-1.75V85.45h-8.56v-8.04h17.27v24.87c-2.28 1.59-5.05 2.84-8.3 3.76s-6.71 1.38-10.39 1.38M368.62 106.23V54.11h34.85v7.97h-26.28v13.55h23.98v8.04h-23.98v14.59h27.1v7.97zM471.52 106.23V62.08h-15.71v-7.97h40.06v7.97h-15.64v44.15zM537.93 107.42c-4.72 0-8.92-1.12-12.62-3.35s-6.59-5.4-8.67-9.49-3.13-8.9-3.13-14.41 1.04-10.39 3.13-14.48 4.98-7.27 8.67-9.53c3.7-2.26 7.9-3.39 12.62-3.39s8.9 1.13 12.55 3.39 6.53 5.44 8.64 9.53c2.11 4.1 3.17 8.92 3.17 14.48s-1.06 10.31-3.17 14.41-4.99 7.26-8.64 9.49-7.83 3.35-12.55 3.35m0-8.34c3.13 0 5.83-.78 8.12-2.35 2.28-1.56 4.06-3.77 5.32-6.63 1.27-2.85 1.9-6.17 1.9-9.94s-.63-7.16-1.9-10.01-3.04-5.06-5.32-6.63c-2.28-1.56-4.99-2.35-8.12-2.35s-5.78.78-8.12 2.35q-3.495 2.34-5.4 6.63c-1.27 2.85-1.9 6.19-1.9 10.01s.63 7.09 1.9 9.94 3.06 5.06 5.4 6.63c2.33 1.56 5.04 2.35 8.12 2.35M583.2 106.23V54.11h23.83q7.29 0 11.58 3.42c2.85 2.28 4.28 6.13 4.28 11.54s-1.43 9.28-4.28 11.62c-2.86 2.33-6.71 3.5-11.58 3.5h-15.26v22.04h-8.56Zm8.57-30.09h14.07c2.53 0 4.49-.55 5.88-1.64s2.08-2.9 2.08-5.44-.7-4.27-2.08-5.36c-1.39-1.09-3.35-1.64-5.88-1.64h-14.07v14.07Z" class="cls-1"/><path id="_x3C_リピートミラー_x3E_" d="m65.83 1.41-64 64" class="cls-3" style="clip-path:url(#clippath)"/><path id="_x3C_リピートミラー_x3E_-2" d="m62.66 1.41 64 64" class="cls-3" data-name="_x3C_リピートミラー_x3E_" style="clip-path:url(#clippath-1)"/><path id="_x3C_リピートミラー_x3E_-3" d="m65.41 41.41-64 64" class="cls-3" data-name="_x3C_リピートミラー_x3E_" style="clip-path:url(#clippath-2)"/><path id="_x3C_リピートミラー_x3E_-4" d="m62.24 41.41 64 64" class="cls-3" data-name="_x3C_リピートミラー_x3E_" style="clip-path:url(#clippath-3)"/></g></g></svg>