<svg xmlns="http://www.w3.org/2000/svg" data-name="レイヤー_2" viewBox="0 0 330 330"><g data-name="レイヤー_1"><path d="M136.02 100.42c-7.85-7.85-15.61-15.63-23.87-23.06-2.11-1.89-4.38-4.15-4.35-6.98.02-1.77.96-3.39 2.03-4.79 1.79-2.34 4.4-4.49 7.34-4.21 2.51.24 4.48 2.15 6.3 3.88 8.69 8.26 17.36 16.5 26 24.81 3.79 3.64 7.98 6.86 12.36 10.57.88-.82 1.9-1.75 2.9-2.71 12.11-11.58 23.79-24.03 37.01-34.37.82-.64 1.65-1.28 2.61-1.66 2.19-.88 4.79-.29 6.7 1.1s3.19 3.5 4.06 5.69c.17.43.33.89.26 1.35-.07.5-.4.92-.72 1.31-5.45 6.66-11.27 13-17.4 19.03a263 263 0 0 1-10.45 9.72c1.19.1 2.47.3 3.76.3 10.03.01 20.06.04 30.09.04 9.45 0 19.65-1.19 29 .14 4.59.65 9.16 2.39 12.42 5.68 4.47 4.51 5.88 11.25 5.99 17.6.36 20.24-.27 40.6-.26 60.86 0 10.48.01 20.95.02 31.43 0 8.64 1.99 19.2-2.55 26.98-1.24 2.12-2.85 4.02-4.76 5.55-4.16 3.32-9.39 4.66-14.65 4.29-6.23-.44-12.59-.47-18.86-.14-3.83.2-5.18 3.18-7.61 6.08l-8.1 9.69c-1.11 1.32-2.36 2.73-4.06 3.02-2.54.42-4.67-1.8-6.31-3.78-3.37-4.06-6.59-8.31-10.43-11.95-4.4-4.18-9.57-3.01-15.34-3.02l-21.84-.05c-5.13-.01-15.58-2.26-19.34 1.98-3.89 4.39-7.79 8.78-11.68 13.17-1.02 1.15-2.06 2.31-3.4 3.05s-3.06.98-4.39.22c-.68-.39-1.2-1-1.71-1.6-2.44-3.26-5.31-6.28-7.94-9.39-1.32-1.56-2.66-3.12-3.97-4.69-1.73-2.09-1.74-2.46-4.34-2.73-7.92-.83-15.95-.26-23.89 0-.76.03-1.53.05-2.27-.13-.93-.23-1.75-.77-2.6-1.23-1.74-.95-3.66-1.58-5.31-2.67-2.37-1.57-4.04-4.01-5.2-6.6-3.63-8.15-1.79-19.13-1.79-27.84v-66.49c0-5.36.1-10.7.16-16.05s-1.02-11.33.49-16.84c2.42-8.82 11.03-14.62 19.97-14.56 18.1.11 36.21.03 54.31.03h5.65Z" style="fill:#fff"/><rect width="319" height="319" x="5.5" y="5.5" rx="80.38" ry="80.38" style="fill:none;stroke:#fff;stroke-miterlimit:10;stroke-width:11px"/></g></svg>