<svg xmlns="http://www.w3.org/2000/svg" data-name="レイヤー_2" viewBox="0 0 330 330"><g data-name="レイヤー_1"><rect width="319" height="319" x="5.5" y="5.5" rx="80.38" ry="80.38" style="fill:none;stroke:#fff;stroke-miterlimit:10;stroke-width:11px"/><path d="M273.85 116.89c-2.62-9.8-10.33-17.51-20.13-20.13C235.96 92 164.77 92 164.77 92s-71.2 0-88.95 4.76c-9.8 2.62-17.51 10.33-20.13 20.13-4.76 17.76-4.76 54.8-4.76 54.8s0 37.05 4.76 54.8c2.62 9.8 10.33 17.51 20.13 20.13 17.76 4.76 88.95 4.76 88.95 4.76s71.2 0 88.95-4.76c9.8-2.62 17.51-10.33 20.13-20.13 4.76-17.76 4.76-54.8 4.76-54.8s0-37.05-4.76-54.8M142 205.84v-68.3l59.15 34.15z" style="fill:#fff"/></g></svg>